<svg xmlns="http://www.w3.org/2000/svg" viewBox="0 0 64 64" width="64" height="64">
  <g fill="none">
    <path d="M32 4C18.745 4 8 14.745 8 28c0 7.735 3.66 14.617 9.35 19.01V52a4 4 0 004 4h21.3a4 4 0 004-4v-4.99C52.34 42.617 56 35.735 56 28 56 14.745 45.255 4 32 4z" fill="#00ff41"/>
    <ellipse cx="22" cy="28" rx="6" ry="7" fill="#0a0a0a"/>
    <ellipse cx="42" cy="28" rx="6" ry="7" fill="#0a0a0a"/>
    <path d="M28 40 l4 6 l4-6" fill="#0a0a0a"/>
    <line x1="24" y1="52" x2="24" y2="56" stroke="#0a0a0a" stroke-width="2"/>
    <line x1="32" y1="52" x2="32" y2="56" stroke="#0a0a0a" stroke-width="2"/>
    <line x1="40" y1="52" x2="40" y2="56" stroke="#0a0a0a" stroke-width="2"/>
  </g>
</svg>
